<svg width="29" height="22" viewBox="0 0 29 22" fill="none" xmlns="http://www.w3.org/2000/svg">
<path fill-rule="evenodd" clip-rule="evenodd" d="M3.36387 1C2.67744 7.17782 3.36163 10.4726 4.01063 11.8216C2.83408 12.7313 1.82415 13.6716 1 14.4957C13.4619 26.9576 23.8465 19.6879 28.0004 14.4957C26.9786 13.4739 25.9732 12.5894 24.9858 11.8291C25.6358 10.4848 26.3238 7.18928 25.6361 1L17.579 8.16167C15.3741 7.6682 13.3105 7.7354 11.4152 8.15652L3.36387 1Z" fill="#FAFAFA"/>
<path d="M4.01063 11.8216L4.16355 12.0194L4.32366 11.8956L4.23592 11.7132L4.01063 11.8216ZM3.36387 1L3.52996 0.813146L3.16876 0.492093L3.1154 0.972392L3.36387 1ZM1 14.4957L0.823223 14.3189L0.646447 14.4957L0.823223 14.6725L1 14.4957ZM28.0004 14.4957L28.1956 14.6519L28.3354 14.4772L28.1771 14.3189L28.0004 14.4957ZM24.9858 11.8291L24.7607 11.7203L24.6722 11.9032L24.8332 12.0272L24.9858 11.8291ZM25.6361 1L25.8846 0.972392L25.8312 0.492093L25.47 0.813146L25.6361 1ZM17.579 8.16167L17.5244 8.40564L17.6494 8.43361L17.7451 8.34853L17.579 8.16167ZM11.4152 8.15652L11.2491 8.34337L11.3446 8.42829L11.4694 8.40057L11.4152 8.15652ZM4.23592 11.7132C3.61703 10.4268 2.92785 7.18797 3.61234 1.02761L3.1154 0.972392C2.42703 7.16767 3.10624 10.5184 3.78535 11.93L4.23592 11.7132ZM1.17678 14.6725C1.99611 13.8532 2.99792 12.9206 4.16355 12.0194L3.85772 11.6238C2.67023 12.542 1.6522 13.49 0.823223 14.3189L1.17678 14.6725ZM27.8052 14.3395C25.7501 16.9083 22.1628 19.9771 17.5679 20.8706C12.9921 21.7604 7.36121 20.5034 1.17678 14.3189L0.823223 14.6725C7.10066 20.9499 12.893 22.289 17.6634 21.3614C22.4147 20.4375 26.0967 17.2753 28.1956 14.6519L27.8052 14.3395ZM24.8332 12.0272C25.8114 12.7804 26.8088 13.6577 27.8236 14.6725L28.1771 14.3189C27.1485 13.2902 26.135 12.3985 25.1383 11.631L24.8332 12.0272ZM25.3877 1.02761C26.0734 7.19949 25.3804 10.4388 24.7607 11.7203L25.2108 11.9379C25.8913 10.5308 26.5742 7.17907 25.8846 0.972392L25.3877 1.02761ZM17.7451 8.34853L25.8022 1.18685L25.47 0.813146L17.413 7.97482L17.7451 8.34853ZM11.4694 8.40057C13.3317 7.98678 15.3581 7.92079 17.5244 8.40564L17.6336 7.91771C15.3902 7.41561 13.2893 7.48401 11.3609 7.91247L11.4694 8.40057ZM3.19778 1.18685L11.2491 8.34337L11.5813 7.96967L3.52996 0.813146L3.19778 1.18685Z" fill="black"/>
</svg>
