<svg width="29" height="22" viewBox="0 0 29 22" fill="none" xmlns="http://www.w3.org/2000/svg">
<path clip-rule="evenodd" d="m3.36387 1c-.68643 6.17782-.00224 9.4726.64676 10.8216-1.17655.9097-2.18648 1.85-3.01063 2.6741 12.4619 12.4619 22.8465 5.1922 27.0004 0-1.0218-1.0218-2.0272-1.9063-3.0146-2.6666.65-1.3443 1.338-4.63982.6503-10.8291l-8.0571 7.16167c-2.2049-.49347-4.2685-.42627-6.1638-.00515z" fill="#21C7FF" fill-rule="evenodd"/>
<path d="m4.01063 11.8216.15292.1978.16011-.1238-.08774-.1824zm-.64676-10.8216.16609-.186854-.3612-.321053-.05336.480299zm-2.36387 13.4957-.176777-.1768-.176776.1768.176776.1768zm27.0004 0 .1952.1562.1398-.1747-.1583-.1583zm-3.0146-2.6666-.2251-.1088-.0885.1829.161.124zm.6503-10.8291.2485-.027608-.0534-.480299-.3612.321053zm-8.0571 7.16167-.0546.24397.125.02797.0957-.08508zm-6.1638-.00515-.1661.18685.0955.08492.1248-.02772zm-7.17928 3.55668c-.61889-1.2864-1.30807-4.52523-.62358-10.68559l-.49694-.055218c-.68837 6.195278-.00916 9.546008.66995 10.957608zm-3.05914 2.9593c.81933-.8193 1.82114-1.7519 2.98677-2.6531l-.30583-.3956c-1.18749.9182-2.20552 1.8662-3.034497 2.6951zm26.62842-.333c-2.0551 2.5688-5.6424 5.6376-10.2373 6.5311-4.5758.8898-10.20669-.3672-16.39112-6.5517l-.353557.3536c6.277437 6.2774 12.069777 7.6165 16.840177 6.6889 4.7513-.9239 8.4333-4.0861 10.5322-6.7095zm-2.972-2.3123c.9782.7532 1.9756 1.6305 2.9904 2.6453l.3535-.3536c-1.0286-1.0287-2.0421-1.9204-3.0388-2.6879zm.5545-10.99959c.6857 6.17188-.0073 9.41119-.627 10.69269l.4501.2176c.6805-1.4071 1.3634-4.75883.6738-10.965508zm-7.6426 7.32092 8.0571-7.16168-.3322-.373704-8.057 7.161674zm-6.2757.05204c1.8623-.41379 3.8887-.47978 6.055.00507l.1092-.48793c-2.2434-.5021-4.3443-.4337-6.2727-.00524zm-8.27162-7.21372 8.05132 7.15652.3322-.3737-8.05134-7.156524z" fill="#fff"/>
</svg>
